<svg width="172" height="60" viewBox="0 0 172 60" fill="none" xmlns="http://www.w3.org/2000/svg">
<path d="M6.69836 10.2311C6.69836 10.8247 8.39371 10.6072 8.39371 11.3124C8.39371 11.5886 7.85025 12.0588 6.69836 12.0588C6.28486 12.0588 4.30005 11.6415 4.30005 10.7835C4.30005 10.4545 5.4165 8.16259 5.67051 7.72184C6.03085 7.1048 9.04941 6 14.6967 6C39.3413 6 55.5151 20.6327 55.5151 30.7287C55.5151 39.2968 46.3531 44.4388 35.1413 44.4388C23.9295 44.4388 12.3456 35.3418 12.3456 31.9628C12.3456 28.5837 22.6241 24.5583 30.9059 24.5583C36.0865 24.5583 44.0021 26.3683 44.0021 30.288C44.0021 31.5103 42.5371 33.8374 40.5582 33.8374C39.0164 33.8374 38.532 33.573 38.532 33.285C38.532 32.4564 40.4873 32.2272 40.4873 30.9696C40.4873 29.2008 32.4063 28.7894 29.2755 28.7894C24.219 28.7894 13.7869 29.9354 13.7869 32.0921C13.7869 33.9021 21.5371 40.8599 34.6274 40.8599C43.37 40.8599 50.9076 37.0872 50.9076 30.6817C50.9076 20.5152 33.2156 8.95005 14.3422 8.95005C10.8511 8.95005 6.69245 9.26151 6.69245 10.2253L6.69836 10.2311Z" fill="#052822"/>
<path d="M153.524 38.0505C153.265 34.7677 153.228 29.3075 153.413 25.8237C153.413 25.3882 154.043 25.1203 154.339 25.1538C155.228 25.2543 155.487 25.7232 155.562 26.5607C155.524 27.9676 155.487 29.408 155.524 30.8484C157.71 30.5134 159.303 29.2405 159.933 27.8336C160.414 26.7617 160.563 24.5843 159.044 23.7803C156.895 22.6414 153.709 23.6463 151.449 25.8907C151.598 26.5607 151.19 27.1301 150.56 27.3311C150.19 27.4316 149.449 26.7952 149.449 26.3262C149.449 22.7754 154.487 21 157.747 21C160.155 21 161.859 22.4404 162.452 24.3498C163.489 27.6661 161.748 30.413 158.266 32.3558C160.822 33.7963 163.008 35.0022 165.267 36.5096C165.564 36.7776 166.157 37.2131 165.675 38.2515C165.379 38.888 164.527 38.9215 163.86 38.486C161.674 36.8446 158.229 34.9352 155.562 33.4948C155.599 35.2702 155.636 37.0456 155.71 38.754C155.71 39.3904 155.265 39.5914 154.672 39.5914C154.117 39.5244 153.561 38.3855 153.524 38.0505Z" fill="#052822"/>
<path d="M136.41 38.62C136.188 39.3905 135.744 40.0604 135.299 40.1609C134.373 40.3619 133.817 39.759 133.928 39.022C134.743 33.6958 137.596 26.7952 140.56 22.206C140.782 21.871 141.189 21.8375 141.412 21.9045C141.671 21.737 142.041 21.5695 142.375 21.5695C142.671 21.5695 143.005 21.6365 143.745 23.2109C144.449 25.4888 145.375 27.9676 146.376 30.346C146.524 30.3125 146.635 30.279 146.783 30.2455C147.302 30.212 148.191 30.212 148.413 30.748C148.71 31.4179 148.302 31.8869 147.265 32.3559C147.895 33.7963 148.561 35.1697 149.228 36.4427C149.376 36.9116 149.71 38.486 149.08 38.7205C148.413 38.955 147.487 37.9166 147.228 37.4141C146.413 35.9402 145.635 34.4328 144.931 32.9254C142.856 33.2603 140.263 33.5953 137.929 33.6623C137.374 35.3372 136.855 36.9786 136.41 38.62ZM141.671 24.5508C140.56 26.7952 139.559 29.1066 138.707 31.4514C140.337 31.4179 142.19 31.217 144.005 30.882C143.116 28.8386 142.338 26.7282 141.671 24.5508Z" fill="#052822"/>
<path d="M25.6073 16.3605C24.3077 16.3605 24.349 23.6299 24.349 32.2273C24.349 41.7474 24.349 46.243 27.2317 46.243C30.2798 46.243 28.8148 43.8689 28.8148 33.0207C28.8148 23.195 27.7929 16.3605 25.6073 16.3605Z" fill="#052822"/>
<path d="M58.5394 23.5415C57.0803 23.5415 57.098 27.3025 57.098 31.9156C57.098 36.8814 57.1453 40.6424 59.7504 40.6424C60.9909 40.6424 61.6229 39.8432 61.4693 38.662C60.1225 28.2193 61.0972 23.5474 58.5394 23.5474V23.5415Z" fill="#052822"/>
<path d="M65.6578 9.39654C65.6578 8.73836 64.1692 7.54541 62.0781 7.54541C57.8781 7.54541 52.2131 11.9235 52.2131 15.4788C52.2131 18.0939 55.1254 20.4151 58.6815 20.4151C63.8443 20.4151 69.1017 14.5856 69.1017 12.2643C69.1017 10.2957 67.7076 9.26725 66.1245 9.26725C58.587 9.26725 53.6131 17.3299 53.6131 18.4347C53.6131 20.2565 54.0798 21.5199 55.0072 21.5199C55.8697 21.5199 56.7203 20.421 57.3819 17.8412C57.9844 15.4847 63.0882 11.1184 65.2443 11.1184C66.1777 11.1184 66.7802 11.471 66.7802 12.3113C66.7802 15.2614 62.4562 17.6884 59.1481 17.6884C57.3346 17.6884 54.5406 16.4426 54.5406 15.0851C54.5406 13.3809 57.1752 10.6306 58.8233 10.6306C59.473 10.6306 60.9912 10.2369 61.0384 11.0714L65.6578 9.39654Z" fill="#052822"/>
<path d="M79.8465 23.8062C79.8465 23.1304 76.574 22.5721 74.7782 22.5721C71.612 22.5721 62.3141 23.8943 62.3141 28.3018C62.3141 31.0931 66.2128 30.8581 69.9875 30.8581C73.4077 30.8581 77.1056 31.5398 77.1056 33.4555C77.1056 34.4663 73.136 36.3174 68.0322 36.3174C66.4668 36.3174 65.1495 36.006 65.1495 34.907C65.1495 34.2195 65.8466 33.6318 66.7326 33.6318C68.3807 33.6318 69.7807 34.907 71.7124 34.907C73.5082 34.907 75.0145 34.3076 75.0145 33.5848C75.0145 32.2214 69.4499 31.7807 67.4769 31.7807C65.0727 31.7807 63.6609 33.7376 63.6609 34.907C63.6609 36.5525 65.9883 39.8022 71.9428 39.8022C75.6643 39.8022 79.8997 38.1568 79.8997 34.0726C79.8997 29.7592 76.4322 28.8071 72.3385 28.9364C70.9681 28.9834 66.1301 28.8071 66.1301 27.9257C66.1301 25.7631 79.8524 26.9972 79.8524 23.8062H79.8465Z" fill="#052822"/>
<path d="M82.6407 39.4967C81.3353 39.4967 80.4078 37.4046 80.4078 35.8179C80.4078 34.6426 80.904 23.6299 83.4087 23.6299C85.5471 23.6299 90.5032 33.1734 91.5251 33.1734C91.915 33.1734 91.6669 30.9521 91.2002 28.7425C90.515 25.4751 88.8019 20.8208 88.8019 20.6328C88.8019 20.2802 88.7074 19.575 89.3631 19.575C91.0053 19.575 95.3175 26.0393 95.3175 31.4516C95.3175 33.338 94.7032 38.1509 91.7141 38.1509C88.9909 38.1509 85.5707 29.4242 84.6669 29.4242C83.645 29.4242 84.2711 36.1235 84.2711 36.6935C84.2711 37.2636 83.9226 39.4908 82.6407 39.4908V39.4967Z" fill="#052822"/>
<path d="M116.247 20.5917C115.112 20.5917 110.363 27.385 110.363 32.2038C110.363 35.2596 114.179 39.1911 116.642 39.1911C120.346 39.1911 127.157 34.5192 127.157 27.244C127.157 25.2048 125.273 22.0197 123.879 22.0197C119.939 22.0197 108.691 35.7474 108.691 50.3801C108.691 51.8375 111.107 53.9942 112.041 53.9942C113.34 53.9942 112.431 46.7131 116.04 38.2567C120.364 28.1196 123.436 25.2107 124.133 25.2107C124.694 25.2107 125.06 26.0922 125.06 27.1499C125.06 31.8512 120.736 34.6837 118.22 34.6837C116.453 34.6837 113.24 32.7033 113.24 30.6289C113.24 28.5544 116.731 22.9952 116.731 21.3262C116.731 20.8385 116.743 20.574 116.241 20.574L116.247 20.5917Z" fill="#052822"/>
<path d="M97.2672 31.3633C96.8773 31.2046 96.8005 30.7286 96.8005 30.1292C96.8005 29.2713 97.3735 28.7952 98.2655 28.6248C98.7912 27.2086 99.2756 25.9157 99.5119 25.2164C99.0393 25.187 98.6494 25.1518 98.36 25.1224C96.7296 24.9578 96.6292 24.2938 96.2334 23.3124C95.9676 22.6542 105.295 21.4142 107.014 21.4142C108.733 21.4142 109.152 22.0783 109.525 22.4309C109.897 22.7835 110.594 23.3594 110.594 23.8824C110.594 24.4054 109.708 25.1576 108.503 25.2517C107.055 25.3633 104.946 25.3809 102.979 25.3398C102.855 25.7747 102.471 26.9853 102.017 28.378C103.96 28.2722 106.122 28.1723 106.565 28.1958C107.392 28.2428 107.947 28.425 107.9 29.5298C107.847 30.7286 107.504 30.7874 106.364 30.9813C105.909 31.0577 103.31 31.187 101.054 31.2869C100.563 32.7913 100.179 34.0195 100.179 34.1547C100.179 34.5073 100.321 35.1243 100.693 35.1243C101.065 35.1243 106.276 33.8021 107.114 33.8021C107.953 33.8021 108.786 34.7306 108.786 35.5239C108.786 36.3173 103.481 40.0607 100.227 40.0607C96.9718 40.0607 95.9912 36.4466 95.9912 35.4358C95.9912 35.0009 96.5701 33.2908 97.2672 31.3574V31.3633Z" fill="#052822"/>
</svg>
