<svg xmlns="http://www.w3.org/2000/svg" width="250" height="192" viewBox="0 0 250 192"><rect width="100%" height="100%" fill="#DDDDDD"/><path fill="#999999" d="M60.195 104.13h6.12q.66 0 1.05.38.38.37.38.98v2.44h-16.37v-1.35q0-.42.18-.87.17-.45.55-.82l7.24-7.26q.91-.92 1.63-1.76t1.2-1.67q.47-.82.73-1.67t.26-1.79q0-.86-.25-1.51t-.7-1.1q-.46-.45-1.09-.67-.64-.22-1.43-.22-.73 0-1.34.21-.62.2-1.1.57t-.81.87q-.33.49-.49 1.09-.29.76-.73 1-.45.25-1.29.12l-2.14-.38q.24-1.72.95-3.01.71-1.3 1.78-2.16 1.06-.87 2.44-1.31 1.38-.43 2.96-.43 1.65 0 3.02.48 1.37.49 2.34 1.38.98.89 1.52 2.15.55 1.25.55 2.79 0 1.32-.39 2.44t-1.04 2.14q-.65 1.03-1.53 1.98-.87.96-1.83 1.95l-5.38 5.49q.78-.23 1.55-.35.76-.13 1.46-.13m16.61-16.36-.84 4.96q.79-.16 1.52-.24.72-.07 1.4-.07 1.88 0 3.32.56 1.43.56 2.41 1.55.97.99 1.46 2.32.5 1.33.5 2.86 0 1.9-.67 3.47t-1.86 2.68q-1.18 1.11-2.81 1.72-1.62.61-3.54.61-1.12 0-2.13-.23-1-.23-1.89-.62-.88-.38-1.63-.89-.75-.5-1.34-1.06l1.25-1.73q.4-.56 1.04-.56.41 0 .84.26t.98.58q.56.31 1.31.57.75.27 1.8.27 1.13 0 1.98-.36.86-.37 1.43-1.02t.86-1.55.29-1.96q0-1.94-1.13-3.04t-3.34-1.1q-1.7 0-3.49.63l-2.54-.73 1.98-11.58h11.78v1.73q0 .88-.54 1.42-.54.55-1.85.55zm29.92 8.23q0 3.12-.67 5.42t-1.85 3.8q-1.18 1.51-2.79 2.24t-3.47.73q-1.87 0-3.46-.73t-2.76-2.24q-1.17-1.5-1.83-3.8t-.66-5.42q0-3.13.66-5.43.66-2.29 1.83-3.79t2.76-2.24q1.59-.73 3.46-.73 1.86 0 3.47.73 1.61.74 2.79 2.24t1.85 3.79q.67 2.3.67 5.43m-4.21 0q0-2.59-.38-4.29t-1.02-2.71q-.63-1-1.46-1.41-.82-.4-1.71-.4-.88 0-1.69.4-.82.41-1.45 1.41-.62 1.01-1 2.71-.37 1.7-.37 4.29t.37 4.29q.38 1.7 1 2.71.63 1 1.45 1.41.81.4 1.69.4.89 0 1.71-.4.83-.41 1.46-1.41.64-1.01 1.02-2.71t.38-4.29m30.41 6.47-2.16 2.13-5.6-5.6-5.64 5.63-2.16-2.13 5.64-5.66-5.38-5.38 2.15-2.14 5.38 5.38 5.34-5.35 2.18 2.15-5.36 5.36zm22.59 2.41h4.29v3.05h-13.2v-3.05h4.83V90.97q0-.83.05-1.7l-3.43 2.87q-.3.23-.59.29t-.54.01q-.26-.05-.46-.18-.19-.12-.29-.27l-1.29-1.76 7.28-6.19h3.35zm11.79-13.65q0 2 1.04 3.05 1.03 1.04 2.92 1.04.99 0 1.77-.31.77-.31 1.3-.86.53-.54.8-1.28.28-.75.28-1.6 0-.98-.3-1.75-.3-.76-.84-1.29-.55-.53-1.3-.81t-1.64-.28q-.92 0-1.67.31-.74.3-1.27.84-.53.55-.81 1.3t-.28 1.64m-1.99 16.7 7.41-9.26q.28-.34.52-.67.25-.33.48-.66-.82.52-1.81.8-.99.27-2.08.27-1.24 0-2.43-.43t-2.11-1.29q-.92-.87-1.49-2.15t-.57-2.99q0-1.6.59-3.01.6-1.4 1.67-2.46 1.07-1.05 2.57-1.66t3.32-.61q1.83 0 3.29.57 1.46.58 2.49 1.62t1.59 2.49q.55 1.46.55 3.19 0 1.1-.19 2.09t-.54 1.91q-.34.91-.84 1.79-.49.87-1.1 1.73l-5.47 7.79q-.28.4-.84.67t-1.27.27zm25.75-3.8h6.13q.66 0 1.04.38.39.37.39.98v2.44h-16.37v-1.35q0-.42.18-.87.17-.45.55-.82l7.24-7.26q.91-.92 1.63-1.76t1.19-1.67q.48-.82.74-1.67.25-.85.25-1.79 0-.86-.24-1.51-.25-.65-.7-1.1-.46-.45-1.09-.67-.64-.22-1.43-.22-.73 0-1.35.21-.61.2-1.09.57t-.81.87q-.33.49-.5 1.09-.28.76-.72 1-.45.25-1.29.12l-2.14-.38q.24-1.72.95-3.01.71-1.3 1.78-2.16 1.06-.87 2.44-1.31 1.38-.43 2.96-.43 1.65 0 3.02.48 1.37.49 2.34 1.38.98.89 1.52 2.15.54 1.25.54 2.79 0 1.32-.38 2.44-.39 1.12-1.04 2.14-.65 1.03-1.53 1.98-.87.96-1.83 1.95l-5.38 5.49q.78-.23 1.54-.35.77-.13 1.46-.13"/></svg>