<svg xmlns="http://www.w3.org/2000/svg" xmlns:xlink="http://www.w3.org/1999/xlink" fill="none" version="1.1" width="14" height="14" viewBox="0 0 14 14"><defs><clipPath id="master_svg0_6_20776"><rect x="0" y="0" width="14" height="14" rx="0"/></clipPath></defs><g clip-path="url(#master_svg0_6_20776)"><g><path d="M9.9169921875,1.750013505859375L12.2502921875,1.750013505859375C12.5724921875,1.750013505859375,12.8336921875,2.011173505859375,12.8336921875,2.333343505859375L12.8336921875,11.666643505859374C12.8336921875,11.988843505859375,12.5724921875,12.250043505859376,12.2502921875,12.250043505859376L1.7503251875,12.250043505859376C1.4281591875,12.250043505859376,1.1669921875,11.988843505859375,1.1669921875,11.666643505859374L1.1669921875,2.333343505859375C1.1669921875,2.011173505859375,1.4281591875,1.750013505859375,1.7503251875,1.750013505859375L4.0836621875,1.750013505859375L4.0836621875,0.583343505859375L5.2503221875,0.583343505859375L5.2503221875,1.750013505859375L8.7503221875,1.750013505859375L8.7503221875,0.583343505859375L9.9169921875,0.583343505859375L9.9169921875,1.750013505859375ZM2.3336621875,5.250013505859375L2.3336621875,11.083343505859375L11.6669921875,11.083343505859375L11.6669921875,5.250013505859375L2.3336621875,5.250013505859375ZM3.5003221875,6.416673505859375L4.6669921875,6.416673505859375L4.6669921875,7.583343505859375L3.5003221875,7.583343505859375L3.5003221875,6.416673505859375ZM6.4169921875,6.416673505859375L7.5836621875,6.416673505859375L7.5836621875,7.583343505859375L6.4169921875,7.583343505859375L6.4169921875,6.416673505859375ZM9.3336621875,6.416673505859375L10.5003221875,6.416673505859375L10.5003221875,7.583343505859375L9.3336621875,7.583343505859375L9.3336621875,6.416673505859375Z" fill="#A6A6A6" fill-opacity="1" style="mix-blend-mode:passthrough"/></g></g></svg>