<?xml version="1.0" encoding="UTF-8"?>
<svg version="1.1" xmlns="http://www.w3.org/2000/svg" width="460" height="460">
<path d="M0 0 C151.8 0 303.6 0 460 0 C460 151.8 460 303.6 460 460 C308.2 460 156.4 460 0 460 C0 308.2 0 156.4 0 0 Z " fill="#000000" transform="translate(0,0)"/>
<path d="M0 0 C1.13887161 -0.00621368 2.27774323 -0.01242737 3.4511261 -0.01882935 C4.69556992 -0.01487152 5.94001373 -0.0109137 7.22216797 -0.00683594 C9.15451546 -0.01092972 9.15451546 -0.01092972 11.12590027 -0.0151062 C14.60442061 -0.02071229 18.08275767 -0.01195574 21.56125259 0.00124359 C23.70761593 0.00876544 25.853962 0.01290978 28.00033569 0.01617432 C87.62320357 0.12356412 87.62320357 0.12356412 105.52685547 7.13378906 C106.21924316 7.400625 106.91163086 7.66746094 107.625 7.94238281 C108.99583558 8.47191482 110.36567109 9.0040448 111.734375 9.5390625 C113.31396134 10.15193701 114.90203178 10.74287158 116.49169922 11.32910156 C122.64395169 13.64227074 128.06412469 16.71496016 133.58935547 20.25878906 C134.45689453 20.80277344 135.32443359 21.34675781 136.21826172 21.90722656 C140.9444064 24.93965116 140.9444064 24.93965116 142.58935547 26.25878906 C142.58935547 26.91878906 142.58935547 27.57878906 142.58935547 28.25878906 C143.41435547 28.42378906 144.23935547 28.58878906 145.08935547 28.75878906 C150.03136494 30.87679312 152.97049515 34.36794759 156.58935547 38.25878906 C157.41435547 39.08378906 158.23935547 39.90878906 159.08935547 40.75878906 C159.91435547 41.58378906 160.73935547 42.40878906 161.58935547 43.25878906 C162.23001953 43.87625 162.87068359 44.49371094 163.53076172 45.12988281 C167.44666923 48.94482769 170.71914148 52.57077289 173.58935547 57.25878906 C174.50472675 58.59301205 175.42154349 59.92624386 176.33935547 61.25878906 C183.12080336 71.49104968 188.55100027 81.63884746 192.58935547 93.25878906 C192.87423828 93.9896875 193.15912109 94.72058594 193.45263672 95.47363281 C196.30584356 103.09681622 197.36072415 111.24713159 198.58935547 119.25878906 C198.72470703 120.1340625 198.86005859 121.00933594 198.99951172 121.91113281 C199.30574682 124.36532681 199.47152438 126.78780186 199.58935547 129.25878906 C199.65380859 130.53882813 199.71826172 131.81886719 199.78466797 133.13769531 C200.44051268 153.01264157 197.66762247 173.03878468 189.58935547 191.25878906 C188.91829454 193.06966673 188.25110642 194.88198854 187.58935547 196.69628906 C185.91432454 200.85258987 183.68346139 204.35984734 181.10498047 208.01269531 C179.05881751 211.04502444 177.4131726 214.24669741 175.76513672 217.50878906 C174.58935547 219.25878906 174.58935547 219.25878906 171.58935547 220.25878906 C170.87687815 221.90639287 170.21535164 223.57642435 169.58935547 225.25878906 C168.08935547 227.57128906 168.08935547 227.57128906 166.58935547 229.25878906 C165.92935547 229.25878906 165.26935547 229.25878906 164.58935547 229.25878906 C164.36248047 229.81566406 164.13560547 230.37253906 163.90185547 230.94628906 C161.18781416 235.72817137 156.81933828 238.87480282 152.58935547 242.25878906 C151.88810547 243.00128906 151.18685547 243.74378906 150.46435547 244.50878906 C143.13009416 251.52416945 134.59773631 256.6854967 125.58935547 261.25878906 C124.70824097 261.72176392 124.70824097 261.72176392 123.80932617 262.1940918 C118.72349504 264.82211926 113.55014243 266.92337506 108.15185547 268.82128906 C107.28874756 269.12502441 106.42563965 269.42875977 105.53637695 269.74169922 C97.33107037 272.52364308 89.13988396 274.01958203 80.58935547 275.25878906 C79.82272237 275.43178245 79.05608927 275.60477583 78.26622486 275.78301144 C75.21282811 276.32571175 72.35738668 276.38162201 69.25553894 276.37904358 C67.97812836 276.38041824 66.70071777 276.38179291 65.38459778 276.38320923 C63.97653175 276.37967054 62.56846595 276.37603574 61.16040039 276.37231445 C59.67199709 276.37203226 58.18359365 276.37219094 56.69519043 276.37275696 C52.660479 276.37304369 48.62579734 276.36716694 44.59109282 276.360183 C40.37236034 276.35392888 36.15362716 276.35334403 31.93489075 276.35215759 C23.94875006 276.34905035 15.96262307 276.34084513 7.97648841 276.3308081 C-1.11656027 276.31962813 -10.2096096 276.31413176 -19.30266345 276.30911267 C-38.00533157 276.29866203 -56.70798695 276.28107432 -75.41064453 276.25878906 C-76.97969305 273.12069203 -76.55117376 269.77015413 -76.5443573 266.32507324 C-76.54662286 265.49581439 -76.54888841 264.66655555 -76.55122262 263.81216764 C-76.55758153 261.01766814 -76.55673206 258.2232169 -76.5559082 255.42871094 C-76.55889848 253.43168576 -76.5623007 251.43466116 -76.56608582 249.43763733 C-76.57494249 244.00184134 -76.5772646 238.56606107 -76.5779016 233.13025856 C-76.57884919 228.59959162 -76.58252568 224.06892837 -76.5860737 219.53826284 C-76.59422428 208.85444547 -76.59665735 198.17063653 -76.59594727 187.48681641 C-76.59534602 176.44755852 -76.60590577 165.40834944 -76.62169093 154.36910391 C-76.63474285 144.90583868 -76.64013217 135.44258945 -76.63949186 125.97931528 C-76.63923621 120.32082309 -76.64212379 114.66237426 -76.65266991 109.00389099 C-76.6623117 103.68520347 -76.66245718 98.36660111 -76.65515327 93.04791069 C-76.65410259 91.09110325 -76.65649873 89.13429062 -76.66251373 87.17749214 C-76.67016858 84.51572775 -76.66563249 81.85426229 -76.65788269 79.19250488 C-76.66302625 78.4098323 -76.66816982 77.62715972 -76.67346925 76.82076979 C-76.63891593 71.48706046 -76.63891593 71.48706046 -74.41064453 69.25878906 C-71.66452026 68.98031616 -71.66452026 68.98031616 -68.125 68.93994141 C-67.48097229 68.92989578 -66.83694458 68.91985016 -66.17340088 68.90950012 C-64.0415538 68.87857323 -61.90983283 68.86160713 -59.77783203 68.84472656 C-58.30094307 68.8260225 -56.82406488 68.80644966 -55.34719849 68.78604126 C-51.45760436 68.7346333 -47.56797555 68.69505421 -43.67822266 68.65789795 C-39.71003581 68.61791239 -35.74199431 68.56679529 -31.77392578 68.51660156 C-23.98626494 68.4197398 -16.19853402 68.33536812 -8.41064453 68.25878906 C-8.40255768 67.43637726 -8.39447083 66.61396545 -8.38613892 65.76663208 C-8.30828572 58.02642084 -8.22102364 50.28640064 -8.12311745 42.54641914 C-8.07311347 38.5669518 -8.02678406 34.58751153 -7.98876953 30.60791016 C-7.95196816 26.76932024 -7.90562278 22.93095467 -7.85258102 19.092556 C-7.83400956 17.62613728 -7.81891181 16.15967043 -7.80730057 14.69318008 C-7.79048465 12.64336285 -7.76146255 10.5940625 -7.72949219 8.54443359 C-7.71616852 7.37639191 -7.70284485 6.20835022 -7.68911743 5.00491333 C-7.16459663 -0.16758026 -4.52855832 0.00720244 0 0 Z " fill="#FDFDFD" transform="translate(169.41064453125,91.7412109375)"/>
<path d="M0 0 C1.26858101 0.00607269 1.26858101 0.00607269 2.56278992 0.01226807 C3.43916611 0.01035461 4.3155423 0.00844116 5.21847534 0.00646973 C7.08219183 0.00510595 8.94591774 0.00881577 10.80961609 0.01715088 C13.61884416 0.02770738 16.42741185 0.01733615 19.23661804 0.00445557 C28.9898326 -0.00314357 38.26645568 0.35765503 47.85575867 2.27789307 C49.07392273 2.48929932 50.29208679 2.70070557 51.54716492 2.91851807 C58.26540558 4.34443037 63.96134504 6.50964682 70.00419617 9.77789307 C72.90740326 11.36200445 72.90740326 11.36200445 76.29325867 12.69195557 C97.90370621 22.31239603 115.50720217 44.1835116 123.99491882 65.84674072 C131.43958025 86.87168074 131.91640627 108.70624369 126.85575867 130.27789307 C126.72427429 131.09773682 126.59278992 131.91758057 126.45732117 132.76226807 C124.54537956 144.4038681 116.74377832 156.86426621 109.85575867 166.27789307 C109.19575867 166.27789307 108.53575867 166.27789307 107.85575867 166.27789307 C107.67013367 166.97914307 107.48450867 167.68039307 107.29325867 168.40289307 C105.58772814 171.81395411 103.58289908 173.37981431 100.65263367 175.73492432 C98.95694829 177.19100198 97.65912035 178.64235058 96.29325867 180.40289307 C93.69656949 183.46565466 91.24585227 185.15077551 87.85575867 187.27789307 C86.66578211 188.23314948 85.47849232 189.19175821 84.29325867 190.15289307 C78.97596164 194.17899177 72.97177475 196.69917547 66.85575867 199.27789307 C66.14768129 199.58896185 65.43960392 199.90003063 64.71006966 200.22052574 C58.49786945 202.85403555 52.48747373 204.42628498 45.83573914 205.49908447 C44.79860716 205.66766779 43.76147518 205.83625111 42.69291496 206.00994301 C30.86157226 207.78081562 19.11366661 207.82028599 7.17607117 207.73883057 C4.81619874 207.73643801 2.45632439 207.73554253 0.09645081 207.73605347 C-4.78924398 207.73296152 -9.67463775 207.71665575 -14.56025696 207.68951416 C-20.83034011 207.65512143 -27.10010134 207.64789925 -33.37026787 207.64940453 C-38.21538884 207.64886265 -43.06043911 207.63793173 -47.90553665 207.62340164 C-50.22048027 207.61703646 -52.53543186 207.6130954 -54.85038376 207.61161423 C-58.05899243 207.60730178 -61.26725045 207.58985767 -64.4757843 207.56842041 C-65.43141769 207.56932678 -66.38705109 207.57023315 -67.37164307 207.57116699 C-68.24002304 207.56263702 -69.10840302 207.55410706 -70.00309753 207.5453186 C-71.13715688 207.54029107 -71.13715688 207.54029107 -72.29412651 207.53516197 C-74.14424133 207.27789307 -74.14424133 207.27789307 -76.14424133 205.27789307 C-76.3931303 202.92624569 -76.3931303 202.92624569 -76.39147949 199.91899109 C-76.39567398 198.78177612 -76.39986847 197.64456116 -76.40419006 196.47288513 C-76.39857056 195.21929703 -76.39295105 193.96570892 -76.38716125 192.6741333 C-76.3890596 191.35871552 -76.39095795 190.04329773 -76.39291382 188.6880188 C-76.3977699 185.07450297 -76.39009739 181.46111023 -76.37996078 177.84760928 C-76.37119418 174.07242387 -76.37293744 170.29724247 -76.37332153 166.52204895 C-76.37238436 160.18258599 -76.36369261 153.84317083 -76.35005188 147.50372314 C-76.33431902 140.16464804 -76.32905398 132.82562529 -76.32978743 125.48653454 C-76.33039687 118.43750366 -76.32529962 111.38848992 -76.31699562 104.33946419 C-76.31345666 101.33428883 -76.3116315 98.32911953 -76.31110191 95.32394218 C-76.30991486 91.13335551 -76.30021893 86.94283143 -76.289505 82.7522583 C-76.28995819 81.49664597 -76.29041138 80.24103363 -76.2908783 78.94737244 C-76.28661331 77.81297729 -76.28234833 76.67858215 -76.2779541 75.5098114 C-76.27627826 74.51779441 -76.27460241 73.52577742 -76.27287579 72.5036993 C-76.14424133 70.27789307 -76.14424133 70.27789307 -75.14424133 69.27789307 C-72.78025665 69.17711187 -70.44612822 69.13816091 -68.08174133 69.14508057 C-67.37525452 69.14412384 -66.6687677 69.14316711 -65.94087219 69.1421814 C-64.4445334 69.14149974 -62.94819166 69.14335302 -61.45185852 69.14752197 C-59.15393976 69.15287049 -56.85621647 69.14757656 -54.55830383 69.14117432 C-53.10778257 69.1418351 -51.65726142 69.14311627 -50.20674133 69.14508057 C-49.51507874 69.14305634 -48.82341614 69.1410321 -48.11079407 69.13894653 C-43.25919357 69.16294083 -43.25919357 69.16294083 -42.14424133 70.27789307 C-42.02414741 73.40759289 -41.96873618 76.51619213 -41.95478821 79.64703369 C-41.9464949 80.63068405 -41.9382016 81.61433441 -41.92965698 82.62779236 C-41.91221404 84.77112693 -41.89705897 86.91448103 -41.88388062 89.05784607 C-41.86293065 92.44395042 -41.83590244 95.82995646 -41.8072052 99.21600342 C-41.73721116 107.62653769 -41.67790842 116.03714164 -41.61817932 124.44775391 C-41.56734477 131.54906831 -41.51254611 138.65033015 -41.45236206 145.75157166 C-41.42567906 149.09809837 -41.40492983 152.44462967 -41.38435364 155.79119873 C-41.36775827 157.83038569 -41.35088711 159.86957043 -41.33369446 161.90875244 C-41.32741783 163.31763985 -41.32741783 163.31763985 -41.3210144 164.75498962 C-41.69508779 168.84073181 -41.69508779 168.84073181 -40.14424133 172.27789307 C-37.97558814 172.3986545 -35.80295331 172.44818978 -33.63105774 172.47076416 C-32.60860207 172.4830304 -32.60860207 172.4830304 -31.56549072 172.49554443 C-29.29227061 172.52049354 -27.0191145 172.53696041 -24.74580383 172.55133057 C-23.96505871 172.55665424 -23.18431358 172.56197792 -22.37990952 172.56746292 C-18.22779573 172.59426665 -14.0757124 172.61359697 -9.92353821 172.62799072 C-6.51928522 172.6411958 -3.11565096 172.66878204 0.28837585 172.71002197 C26.5122506 173.27803198 26.5122506 173.27803198 51.85575867 167.27789307 C52.7941156 166.94547607 53.73247253 166.61305908 54.69926453 166.27056885 C66.4693543 161.87594006 77.38899882 151.90185567 83.85575867 141.27789307 C84.49513367 140.43226807 85.13450867 139.58664307 85.79325867 138.71539307 C94.74008405 125.31283646 97.24263672 107.20797905 94.3547821 91.56402588 C92.03529639 81.70890032 88.79366585 72.55342463 82.85575867 64.27789307 C81.92763367 62.70008057 81.92763367 62.70008057 80.98075867 61.09039307 C73.50706654 51.19874172 60.6471854 42.85743332 48.85575867 39.27789307 C47.92763367 38.92726807 46.99950867 38.57664307 46.04325867 38.21539307 C38.2292668 35.91716016 30.54037809 35.0140959 22.41825867 34.77789307 C21.63676453 34.73519287 20.85527039 34.69249268 20.0500946 34.64849854 C17.50168347 34.55203067 17.50168347 34.55203067 13.85575867 35.27789307 C9.85290749 39.46538977 8.62999336 44.60852293 7.23075867 50.09039307 C7.02708679 50.84642822 6.82341492 51.60246338 6.61357117 52.38140869 C5.21273152 57.64802698 4.00167647 62.95056073 2.85575867 68.27789307 C3.67141296 68.28723877 4.48706726 68.29658447 5.32743835 68.30621338 C8.41435179 68.35077397 11.50034848 68.41262446 14.5867157 68.4854126 C16.55507336 68.52682665 18.52380443 68.54909759 20.49247742 68.57086182 C32.07526886 68.86484129 43.37689129 70.76100386 51.85575867 79.27789307 C58.22435185 86.86096216 62.77971684 96.62477149 62.30107117 106.67633057 C60.65981284 116.26473446 55.54164316 125.72233501 47.91044617 131.83648682 C40.39722808 136.80110348 33.2897083 138.74161553 24.39482117 138.67633057 C23.08715286 138.68063583 23.08715286 138.68063583 21.75306702 138.68502808 C19.92612552 138.68705621 18.09916169 138.68161457 16.27226257 138.66900635 C13.46757752 138.65281698 10.664308 138.66895679 7.85966492 138.68804932 C6.07971382 138.68606895 4.29976359 138.68222956 2.51982117 138.67633057 C1.680289 138.68240326 0.84075684 138.68847595 -0.0242157 138.69473267 C-2.37226868 138.66607666 -2.37226868 138.66607666 -6.14424133 138.27789307 C-8.38695535 134.91382205 -8.39516836 133.81420548 -8.39820862 129.88139343 C-8.40384827 128.76107727 -8.40948792 127.64076111 -8.41529846 126.48649597 C-8.41125 125.25677567 -8.40720154 124.02705536 -8.4030304 122.7600708 C-8.40653503 121.46562042 -8.41003967 120.17117004 -8.41365051 118.8374939 C-8.4227761 115.28595963 -8.41922984 111.73454142 -8.41289234 108.18300509 C-8.40783429 104.46968186 -8.41252315 100.75636866 -8.41566467 97.04304504 C-8.41930443 90.80791435 -8.41450449 84.57283102 -8.40498352 78.33770752 C-8.39409416 71.12300526 -8.39762796 63.90841599 -8.40863633 56.69371647 C-8.41770325 50.50428181 -8.41899756 44.31488123 -8.41375899 38.12544209 C-8.41063661 34.42651425 -8.41023735 30.72763958 -8.41683197 27.02871513 C-8.42366558 22.90784857 -8.41420247 18.78717783 -8.4030304 14.6663208 C-8.40707886 13.43457626 -8.41112732 12.20283173 -8.41529846 10.9337616 C-8.40965881 9.81626526 -8.40401917 8.69876892 -8.39820862 7.54740906 C-8.39745457 6.57236136 -8.39670052 5.59731367 -8.39592361 4.59271908 C-7.83557642 -0.56102577 -4.36039424 0.03529976 0 0 Z " fill="#010101" transform="translate(204.1442413330078,126.72210693359375)"/>
<path d="M0 0 C4.5206665 -0.02468857 9.0412939 -0.04285449 13.56201172 -0.05493164 C15.10043013 -0.05996552 16.63884375 -0.06679308 18.17724609 -0.07543945 C20.38640526 -0.08754639 22.59550126 -0.09323769 24.8046875 -0.09765625 C25.49432587 -0.10281754 26.18396423 -0.10797882 26.89450073 -0.11329651 C31.77225659 -0.11387171 31.77225659 -0.11387171 34 1 C34.04938149 5.37823917 34.0857104 9.75633146 34.10986328 14.13476562 C34.11993043 15.6247032 34.13358518 17.11462097 34.15087891 18.60449219 C34.17509653 20.74419028 34.18647564 22.88362753 34.1953125 25.0234375 C34.21102295 26.95582275 34.21102295 26.95582275 34.22705078 28.92724609 C34 32 34 32 32 34 C29.56255103 34.17488254 27.2406392 34.23177405 24.8046875 34.1953125 C24.09724396 34.1924826 23.38980042 34.18965271 22.66091919 34.18673706 C20.3987749 34.17553137 18.13702485 34.15042679 15.875 34.125 C14.34245363 34.11497067 12.80990106 34.10584474 11.27734375 34.09765625 C7.51807699 34.07559086 3.75910536 34.04105896 0 34 C-1.45112776 31.09774449 -1.12985159 28.55088766 -1.1328125 25.3125 C-1.13376923 24.65419189 -1.13472595 23.99588379 -1.13571167 23.31762695 C-1.13639225 21.92561752 -1.13454646 20.5336049 -1.13037109 19.14160156 C-1.12502104 17.00839117 -1.13032012 14.87539133 -1.13671875 12.7421875 C-1.13605795 11.39062453 -1.13477674 10.0390617 -1.1328125 8.6875 C-1.13112061 6.83705078 -1.13112061 6.83705078 -1.12939453 4.94921875 C-1 2 -1 2 0 0 Z " fill="#FCFCFC" transform="translate(94,93)"/>
</svg>
