<svg xmlns="http://www.w3.org/2000/svg" xmlns:xlink="http://www.w3.org/1999/xlink" fill="none" version="1.1" width="24" height="24" viewBox="0 0 24 24"><defs><clipPath id="master_svg0_6_14424"><rect x="0" y="0" width="24" height="24" rx="0"/></clipPath></defs><g clip-path="url(#master_svg0_6_14424)"><g><path d="M21.543,6.498Q22,8.280000000000001,22,12Q22,15.72,21.543,17.502000000000002C21.289,18.487000000000002,20.546,19.262,19.605,19.524Q17.896,20,12,20Q6.107,20,4.395,19.524C3.45,19.258,2.708,18.484,2.457,17.502000000000002Q2,15.72,2,12Q2,8.280000000000001,2.457,6.498C2.711,5.513,3.4539999999999997,4.7379999999999995,4.395,4.476Q6.107,4,12,4Q17.896,4,19.605,4.476C20.55,4.742,21.292,5.516,21.543,6.498ZM10,15.5L16,12L10,8.5L10,15.5Z" fill="#A6A6A6" fill-opacity="1" style="mix-blend-mode:passthrough"/></g></g></svg>